<svg width="414" height="623" viewBox="0 0 414 623" fill="none" xmlns="http://www.w3.org/2000/svg">
<circle cx="207.5" cy="311.5" r="311.5" fill="#6566E5"/>
<circle cx="207.5" cy="311.5" r="283.5" fill="#6061D9"/>
<circle cx="207" cy="312" r="252" fill="#5A5BCC"/>
<circle cx="207.5" cy="311.5" r="219.5" fill="#5656C2"/>
<path d="M103.585 298.252H117.343C118.055 298.252 118.644 298.485 119.109 298.95C119.602 299.389 119.848 299.964 119.848 300.675C119.848 301.36 119.602 301.921 119.109 302.359C118.644 302.77 118.055 302.975 117.343 302.975H105.844L106.214 302.277V310.285L105.885 309.957H115.495C116.207 309.957 116.795 310.189 117.261 310.655C117.754 311.093 118 311.668 118 312.38C118 313.064 117.754 313.625 117.261 314.064C116.795 314.474 116.207 314.68 115.495 314.68H106.008L106.214 314.351V322.647L105.885 322.277H117.343C118.055 322.277 118.644 322.524 119.109 323.016C119.602 323.482 119.848 324.029 119.848 324.659C119.848 325.344 119.602 325.905 119.109 326.343C118.644 326.781 118.055 327 117.343 327H103.585C102.873 327 102.271 326.767 101.778 326.302C101.313 325.809 101.08 325.207 101.08 324.495V300.757C101.08 300.046 101.313 299.457 101.778 298.992C102.271 298.499 102.873 298.252 103.585 298.252ZM144.012 296.61C144.724 296.61 145.312 296.842 145.778 297.308C146.243 297.773 146.476 298.376 146.476 299.115V324.495C146.476 325.207 146.243 325.809 145.778 326.302C145.312 326.767 144.724 327 144.012 327C143.3 327 142.711 326.767 142.246 326.302C141.781 325.809 141.548 325.207 141.548 324.495V322.483L142.451 322.852C142.451 323.208 142.26 323.646 141.876 324.166C141.493 324.659 140.973 325.152 140.316 325.645C139.659 326.138 138.878 326.562 137.975 326.918C137.099 327.246 136.141 327.411 135.1 327.411C133.211 327.411 131.5 326.932 129.967 325.973C128.433 324.988 127.215 323.646 126.312 321.949C125.436 320.224 124.997 318.252 124.997 316.035C124.997 313.79 125.436 311.818 126.312 310.121C127.215 308.396 128.42 307.055 129.926 306.096C131.431 305.111 133.102 304.618 134.936 304.618C136.113 304.618 137.195 304.796 138.18 305.152C139.166 305.508 140.015 305.959 140.727 306.507C141.466 307.055 142.027 307.616 142.41 308.191C142.821 308.738 143.026 309.204 143.026 309.587L141.548 310.121V299.115C141.548 298.403 141.781 297.814 142.246 297.349C142.711 296.856 143.3 296.61 144.012 296.61ZM135.716 322.893C136.921 322.893 137.975 322.592 138.878 321.99C139.782 321.387 140.48 320.566 140.973 319.526C141.493 318.485 141.753 317.322 141.753 316.035C141.753 314.721 141.493 313.543 140.973 312.503C140.48 311.463 139.782 310.641 138.878 310.039C137.975 309.437 136.921 309.135 135.716 309.135C134.539 309.135 133.499 309.437 132.595 310.039C131.692 310.641 130.98 311.463 130.46 312.503C129.967 313.543 129.72 314.721 129.72 316.035C129.72 317.322 129.967 318.485 130.46 319.526C130.98 320.566 131.692 321.387 132.595 321.99C133.499 322.592 134.539 322.893 135.716 322.893ZM170.811 305.029C171.523 305.029 172.112 305.275 172.577 305.768C173.043 306.233 173.275 306.822 173.275 307.534V317.965C173.275 320.867 172.468 323.167 170.852 324.864C169.237 326.562 166.91 327.411 163.871 327.411C160.832 327.411 158.504 326.562 156.889 324.864C155.301 323.167 154.507 320.867 154.507 317.965V307.534C154.507 306.822 154.74 306.233 155.205 305.768C155.671 305.275 156.259 305.029 156.971 305.029C157.683 305.029 158.272 305.275 158.737 305.768C159.203 306.233 159.435 306.822 159.435 307.534V317.965C159.435 319.635 159.805 320.881 160.544 321.702C161.283 322.496 162.392 322.893 163.871 322.893C165.376 322.893 166.499 322.496 167.238 321.702C167.977 320.881 168.347 319.635 168.347 317.965V307.534C168.347 306.822 168.58 306.233 169.045 305.768C169.511 305.275 170.099 305.029 170.811 305.029ZM183.539 327C182.827 327 182.238 326.767 181.773 326.302C181.307 325.809 181.075 325.207 181.075 324.495V299.115C181.075 298.403 181.307 297.814 181.773 297.349C182.238 296.856 182.827 296.61 183.539 296.61C184.251 296.61 184.839 296.856 185.305 297.349C185.77 297.814 186.003 298.403 186.003 299.115V324.495C186.003 325.207 185.77 325.809 185.305 326.302C184.839 326.767 184.251 327 183.539 327ZM196.598 305.029C197.228 305.029 197.776 305.289 198.241 305.809C198.707 306.329 198.939 306.836 198.939 307.328C198.939 307.985 198.611 308.601 197.954 309.176L185.592 320.552L185.387 314.885L194.791 305.809C195.312 305.289 195.914 305.029 196.598 305.029ZM197.214 326.959C196.503 326.959 195.9 326.685 195.407 326.138L187.81 318.088L191.547 314.639L198.939 322.688C199.459 323.235 199.72 323.851 199.72 324.536C199.72 325.248 199.432 325.836 198.857 326.302C198.31 326.74 197.762 326.959 197.214 326.959ZM226.491 316.035C226.491 318.28 225.984 320.265 224.971 321.99C223.986 323.687 222.644 325.015 220.947 325.973C219.277 326.932 217.401 327.411 215.32 327.411C213.239 327.411 211.35 326.932 209.653 325.973C207.983 325.015 206.641 323.687 205.628 321.99C204.643 320.265 204.15 318.28 204.15 316.035C204.15 313.79 204.643 311.818 205.628 310.121C206.641 308.396 207.983 307.055 209.653 306.096C211.35 305.111 213.239 304.618 215.32 304.618C217.401 304.618 219.277 305.111 220.947 306.096C222.644 307.055 223.986 308.396 224.971 310.121C225.984 311.818 226.491 313.79 226.491 316.035ZM221.563 316.035C221.563 314.639 221.275 313.434 220.7 312.421C220.153 311.38 219.4 310.573 218.441 309.998C217.511 309.423 216.47 309.135 215.32 309.135C214.17 309.135 213.116 309.423 212.158 309.998C211.227 310.573 210.474 311.38 209.899 312.421C209.352 313.434 209.078 314.639 209.078 316.035C209.078 317.404 209.352 318.608 209.899 319.649C210.474 320.662 211.227 321.456 212.158 322.031C213.116 322.606 214.17 322.893 215.32 322.893C216.47 322.893 217.511 322.606 218.441 322.031C219.4 321.456 220.153 320.662 220.7 319.649C221.275 318.608 221.563 317.404 221.563 316.035ZM244.603 304.618C246.629 304.618 248.162 305.042 249.202 305.891C250.27 306.74 250.996 307.876 251.379 309.3C251.79 310.696 251.995 312.257 251.995 313.981V324.495C251.995 325.207 251.762 325.809 251.297 326.302C250.831 326.767 250.243 327 249.531 327C248.819 327 248.23 326.767 247.765 326.302C247.3 325.809 247.067 325.207 247.067 324.495V313.981C247.067 313.078 246.944 312.27 246.697 311.558C246.478 310.819 246.068 310.231 245.465 309.792C244.863 309.354 244 309.135 242.878 309.135C241.783 309.135 240.852 309.354 240.085 309.792C239.346 310.231 238.771 310.819 238.36 311.558C237.977 312.27 237.785 313.078 237.785 313.981V324.495C237.785 325.207 237.553 325.809 237.087 326.302C236.622 326.767 236.033 327 235.321 327C234.61 327 234.021 326.767 233.555 326.302C233.09 325.809 232.857 325.207 232.857 324.495V307.534C232.857 306.822 233.09 306.233 233.555 305.768C234.021 305.275 234.61 305.029 235.321 305.029C236.033 305.029 236.622 305.275 237.087 305.768C237.553 306.233 237.785 306.822 237.785 307.534V309.3L237.169 309.176C237.416 308.711 237.772 308.218 238.237 307.698C238.703 307.15 239.25 306.644 239.88 306.178C240.51 305.713 241.222 305.343 242.015 305.07C242.809 304.768 243.672 304.618 244.603 304.618ZM258.102 323.591C257.828 323.208 257.705 322.715 257.732 322.113C257.76 321.511 258.116 320.99 258.8 320.552C259.238 320.279 259.704 320.169 260.196 320.224C260.689 320.251 261.168 320.498 261.634 320.963C262.428 321.757 263.263 322.373 264.139 322.811C265.015 323.249 266.11 323.468 267.424 323.468C267.835 323.441 268.287 323.386 268.78 323.304C269.273 323.194 269.697 322.975 270.053 322.647C270.436 322.291 270.628 321.757 270.628 321.045C270.628 320.443 270.422 319.964 270.012 319.608C269.601 319.252 269.053 318.951 268.369 318.704C267.712 318.458 266.973 318.225 266.151 318.006C265.303 317.76 264.426 317.486 263.523 317.185C262.647 316.884 261.839 316.5 261.1 316.035C260.361 315.542 259.758 314.899 259.293 314.105C258.828 313.311 258.595 312.311 258.595 311.107C258.595 309.738 258.978 308.574 259.745 307.616C260.511 306.658 261.497 305.918 262.702 305.398C263.934 304.878 265.22 304.618 266.562 304.618C267.411 304.618 268.301 304.727 269.231 304.946C270.162 305.138 271.052 305.467 271.901 305.932C272.75 306.37 273.461 306.959 274.036 307.698C274.338 308.109 274.516 308.601 274.57 309.176C274.625 309.751 274.365 310.272 273.79 310.737C273.379 311.066 272.9 311.216 272.353 311.189C271.805 311.134 271.353 310.942 270.997 310.614C270.532 310.012 269.902 309.532 269.108 309.176C268.342 308.821 267.452 308.643 266.439 308.643C266.028 308.643 265.576 308.697 265.084 308.807C264.618 308.889 264.207 309.094 263.852 309.423C263.496 309.724 263.318 310.217 263.318 310.901C263.318 311.531 263.523 312.038 263.934 312.421C264.344 312.777 264.892 313.078 265.576 313.324C266.288 313.543 267.041 313.762 267.835 313.981C268.656 314.2 269.492 314.461 270.34 314.762C271.189 315.063 271.969 315.46 272.681 315.953C273.393 316.446 273.968 317.089 274.406 317.883C274.844 318.649 275.063 319.635 275.063 320.84C275.063 322.236 274.652 323.427 273.831 324.413C273.01 325.398 271.983 326.151 270.751 326.671C269.519 327.164 268.259 327.411 266.973 327.411C265.357 327.411 263.742 327.137 262.127 326.589C260.511 326.014 259.17 325.015 258.102 323.591ZM291.59 327.411C289.263 327.411 287.237 326.932 285.512 325.973C283.814 324.988 282.5 323.66 281.569 321.99C280.666 320.32 280.214 318.43 280.214 316.322C280.214 313.858 280.707 311.764 281.692 310.039C282.705 308.287 284.02 306.945 285.635 306.014C287.25 305.083 288.961 304.618 290.768 304.618C292.165 304.618 293.479 304.905 294.711 305.48C295.97 306.055 297.079 306.849 298.037 307.862C298.996 308.848 299.749 309.998 300.296 311.312C300.871 312.626 301.159 314.022 301.159 315.501C301.131 316.158 300.871 316.692 300.378 317.103C299.886 317.513 299.311 317.719 298.654 317.719H282.965L281.733 313.612H296.805L295.902 314.433V313.324C295.847 312.53 295.56 311.818 295.04 311.189C294.547 310.559 293.917 310.066 293.15 309.71C292.411 309.327 291.617 309.135 290.768 309.135C289.947 309.135 289.18 309.245 288.469 309.464C287.757 309.683 287.141 310.053 286.621 310.573C286.1 311.093 285.69 311.791 285.389 312.667C285.087 313.543 284.937 314.652 284.937 315.994C284.937 317.472 285.238 318.732 285.84 319.772C286.47 320.785 287.264 321.565 288.222 322.113C289.208 322.633 290.248 322.893 291.343 322.893C292.356 322.893 293.164 322.811 293.766 322.647C294.369 322.483 294.848 322.291 295.204 322.072C295.587 321.825 295.929 321.62 296.23 321.456C296.723 321.209 297.189 321.086 297.627 321.086C298.229 321.086 298.722 321.292 299.105 321.702C299.516 322.113 299.721 322.592 299.721 323.14C299.721 323.879 299.338 324.55 298.571 325.152C297.86 325.754 296.86 326.288 295.573 326.754C294.287 327.192 292.959 327.411 291.59 327.411ZM312.857 324.495C312.857 325.207 312.61 325.809 312.117 326.302C311.652 326.767 311.063 327 310.351 327C309.667 327 309.092 326.767 308.627 326.302C308.161 325.809 307.928 325.207 307.928 324.495V299.115C307.928 298.403 308.161 297.814 308.627 297.349C309.119 296.856 309.722 296.61 310.434 296.61C311.145 296.61 311.72 296.856 312.158 297.349C312.624 297.814 312.857 298.403 312.857 299.115V324.495Z" fill="white"/>
</svg>
